<svg xmlns="http://www.w3.org/2000/svg" viewBox="0 0 690.71 690.71">
  <path fill="#EB244E" 
  d="M345.35 0c190.73,0 345.35,154.62 345.35,345.35 0,190.73 -154.62,345.35 -345.35,345.35 -190.73,0 -345.35,-154.62 -345.35,-345.35 0,-190.73 154.62,-345.35 345.35,-345.35zm117.69 237.5c-22.4,-10.13 
  -45.72,-17.49 -69.96,-21.48 -3.07,5.52 -6.44,12.58 -8.9,18.41 -25.77,-3.99 -51.86,-3.99 -77.63,0 -2.76,-6.44 -5.83,-12.58 -9.21,-18.41 -24.24,3.99 -47.87,11.35 -69.96,21.78 -44.19,65.97 -56.15,130.1 
  -50.32,193.62 26.08,19.33 54.92,34.06 85.91,43.26 7.06,-9.51 13.19,-19.33 18.41,-29.76 -10.13,-3.68 -19.64,-8.28 -28.84,-13.81 2.45,-1.84 4.6,-3.68 7.06,-5.52 54.31,25.77 117.52,25.77 171.83,0 2.45,1.84 
  4.6,3.68 7.06,5.52 -9.21,5.52 -19.02,10.13 -29.15,13.81 5.22,10.43 11.35,20.25 18.41,29.76 30.99,-9.51 60.14,-23.93 85.92,-43.26 6.75,-73.64 -12.27,-137.46 -50.63,-193.92zm-174.28 154.65c-16.88,0 -30.38,
  -15.34 -30.38,-34.06 0,-18.72 13.5,-34.37 30.38,-34.37 17.18,0 30.68,15.34 30.68,34.37 -0.31,18.72 -13.5,34.06 -30.68,34.06zm112.92 0c-16.88,0 -30.38,-15.34 -30.38,-34.06 0,-18.72 13.5,-34.37 30.38,-34.37 
  17.18,0 30.68,15.34 30.38,34.37 -0.31,19.02 -13.5,34.06 -30.38,34.06z"/>
</svg>
