<?xml version="1.0" encoding="UTF-8"?>
<!DOCTYPE svg PUBLIC "-//W3C//DTD SVG 1.1//EN" "http://www.w3.org/Graphics/SVG/1.1/DTD/svg11.dtd">
<!-- Creator: CorelDRAW -->
<svg xmlns="http://www.w3.org/2000/svg" xml:space="preserve" width="2.66212in" height="2.66212in" version="1.1" shape-rendering="geometricPrecision" text-rendering="geometricPrecision" image-rendering="optimizeQuality" fill-rule="evenodd" clip-rule="evenodd"
viewBox="0 0 2451.84 2451.84"
 xmlns:xlink="http://www.w3.org/1999/xlink"
 xmlns:xodm="http://www.corel.com/coreldraw/odm/2003">
 <g id="Layer_x0020_1">
  <metadata id="CorelCorpID_0Corel-Layer"/>
  <path fill="#EB244E" fill-rule="nonzero" d="M1225.92 0c-677.07,0 -1225.92,548.85 -1225.92,1225.92 0,677.07 548.85,1225.92 1225.92,1225.92 677.07,0 1225.92,-548.86 1225.92,-1225.92 0,-677.07 -548.86,-1225.92 -1225.92,-1225.92zm-481.3 842.82l960.31 0c50.95,0 24.65,65.38 -3.06,82.11 -27.71,16.6 -411.2,248.63 -425.63,257.19 -14.43,8.55 -32.82,12.77 -51.46,12.77 -0.67,0.01 -1.39,0.02 -2.07,0.02 -17.23,0 -34.22,-4.41 -49.27,-12.8l-425.75 -257.18c-27.71,-16.73 -53.89,-82.11 -3.06,-82.11zm992.1 702.35c0,26.82 -32.18,63.85 -56.7,63.85l-908.2 0c-24.52,0 -56.7,-37.03 -56.7,-63.85l0 -465.72c0,-11.75 -0.26,-26.95 21.96,-14.05l436.35 257.31c13.83,8.45 29.75,12.93 45.96,12.93 1.79,0 3.6,-0.05 5.38,-0.16 18.65,0 32.18,-1.4 51.46,-12.77l438.52 -257.19c22.22,-13.03 21.96,2.3 21.96,14.05l0 465.59z"/>
 </g>
</svg>
