<?xml version="1.0" encoding="UTF-8"?>
<!DOCTYPE svg PUBLIC "-//W3C//DTD SVG 1.1//EN" "http://www.w3.org/Graphics/SVG/1.1/DTD/svg11.dtd">
<!-- Creator: CorelDRAW -->
<svg xmlns="http://www.w3.org/2000/svg" xml:space="preserve" width="2.66211in" height="2.66211in" version="1.1" shape-rendering="geometricPrecision" text-rendering="geometricPrecision" image-rendering="optimizeQuality" fill-rule="evenodd" clip-rule="evenodd"
viewBox="0 0 657 657"
 xmlns:xlink="http://www.w3.org/1999/xlink"
 xmlns:xodm="http://www.corel.com/coreldraw/odm/2003">
 <g id="Layer_x0020_1">
  <metadata id="CorelCorpID_0Corel-Layer"/>
  <path fill="#EB244E" fill-rule="nonzero" d="M329.01 326.75l-1.03 0c-40.75,0 -76.65,-10.37 -97.9,9.17 -11.47,10.19 -18.04,24.81 -18.04,40.16 0,0.26 0.01,0.55 0.01,0.8 0,63.37 50.75,71.17 115.97,71.17l0.99 0c65.19,0 115.97,-7.84 115.97,-71.17 0,-15.16 -5.34,-29.29 -18.03,-40.96 -21.28,-19.54 -57.18,-9.17 -97.93,-9.17l0 0zm-55.5 86.61c-12.42,0 -22.45,-13.96 -22.45,-31.14 0,-17.18 10.03,-31.07 22.45,-31.07 12.42,0 22.48,13.89 22.48,31.07 0.03,17.18 -10.03,31.14 -22.48,31.14zm109.94 0c-12.42,0 -22.48,-13.96 -22.48,-31.14 0,-17.18 10.06,-31.07 22.48,-31.07 12.39,0 22.45,13.89 22.45,31.07 0.03,17.18 -10.03,31.14 -22.45,31.14zm-54.95 -413.36c-181.43,0 -328.5,147.07 -328.5,328.5 0,181.43 147.07,328.5 328.5,328.5 181.43,0 328.5,-147.07 328.5,-328.5 0,-181.43 -147.07,-328.5 -328.5,-328.5zm29.97 463.28c-5.89,0 -17.59,0 -29.97,0.07 -12.39,-0.07 -24.09,-0.07 -29.98,-0.07 -26.01,0 -129.07,-2.02 -129.07,-126.23 0,-28.54 9.79,-49.45 25.83,-66.9 -2.53,-6.3 -2.67,-42.16 10.95,-76.51 0,0 31.34,3.42 78.74,35.96 9.89,-2.77 26.72,-4.17 43.53,-4.17 16.8,0 33.6,1.4 43.56,4.14 47.39,-32.54 78.74,-35.96 78.74,-35.96 13.62,34.36 13.52,70.25 10.95,76.51 16.05,17.45 25.83,38.36 25.83,66.9 -0.03,124.28 -103.1,126.27 -129.11,126.27l-0 0z"/>
 </g>
</svg>
